<?xml version="1.0" encoding="UTF-8" standalone="no"?>
<svg
  xmlns="http://www.w3.org/2000/svg"
  viewBox="180 480 450 140"
  xml:space="preserve"
  version="1.1">

  <g transform="matrix(1.3333333,0,0,-1.3333333,0,1122.52)">

    <g transform="translate(156.7979,432.1382)">
      <path
        style="fill:#4dc083;fill-opacity:1;fill-rule:nonzero;stroke:none"
        d="m 0,0 h -13.493 c -5.922,0 -10.768,-4.846 -10.768,-10.768 0,-5.923 4.846,-10.769 10.768,-10.769 H 0 Z" />
    </g>

    <g transform="translate(163.7062,446.3442)">
      <path
        style="fill:#c6c8cc;fill-opacity:1;fill-rule:nonzero;stroke:none"
        d="M 0,0 H -16.917 V -10.617 H 0.324 c 7.919,0 14.397,-6.478 14.397,-14.397 0,-7.918 -6.478,-14.396 -14.397,-14.396 H -16.917 V -49.731 H 0 c 13.733,0 24.866,11.132 24.866,24.865 C 24.866,-11.133 13.733,0 0,0" />
    </g>

    <g transform="translate(214.8918,416.7689)">
      <path
        style="fill:#c6c8cc;fill-opacity:1;fill-rule:nonzero;stroke:none"
        d="M 0,0 C -0.008,0.714 -0.232,1.436 -0.484,1.953 L -0.49,1.966 -15.674,29.575 h -10.48 L -10.428,1.064 c 0.49,-0.908 0.823,-2.296 0.818,-3.34 v -16.346 c -0.003,-0.412 -0.021,-1.564 -0.021,-1.564 H 0 c 0,0 0.003,1.152 0,1.564 z" />
    </g>

    <g transform="translate(212.8143,431.3703)">
      <path
        style="fill:#c6c8cc;fill-opacity:1;fill-rule:nonzero;stroke:none"
        d="M 0,0 C -0.365,-0.674 -0.357,-1.489 0.021,-2.155 L 3.43,-8.161 3.431,-8.163 c 0.099,-0.172 0.216,-0.328 0.381,-0.461 0.161,-0.132 0.392,-0.238 0.647,-0.237 0.255,-10e-4 0.486,0.105 0.647,0.237 0.165,0.133 0.281,0.29 0.381,0.462 L 5.488,-8.16 18.562,14.974 H 8.082 Z" />
    </g>

    <g transform="translate(246.818,416.6306)">
      <path
        style="fill:#c6c8cc;fill-opacity:1;fill-rule:nonzero;stroke:none"
        d="m 0,0 c -0.014,0.763 -0.324,1.466 -0.8,1.969 l 0.001,0.002 -7.035,7.587 -0.003,-0.002 c -0.096,0.112 -0.196,0.214 -0.323,0.3 -0.135,0.09 -0.31,0.178 -0.552,0.181 C -8.871,10.039 -9.053,9.986 -9.189,9.889 -9.397,9.741 -9.492,9.548 -9.544,9.386 -9.596,9.22 -9.61,9.063 -9.611,8.897 v -22.075 0 -6.87 H 0 v 6.87 0 z" />
    </g>

    <g transform="translate(309.7195,445.8768)">
      <path
        style="fill:#c6c8cc;fill-opacity:1;fill-rule:nonzero;stroke:none"
        d="M 0,0 -0.004,-0.002 C -0.14,0.311 -0.361,0.549 -0.622,0.721 -0.893,0.896 -1.215,1.008 -1.571,1.01 -1.926,1.007 -2.246,0.902 -2.532,0.736 -2.804,0.571 -3.054,0.343 -3.208,-0.002 L -3.213,0 -24.608,-46.65 h -0.001 l -0.04,-0.09 -0.362,-0.789 -0.003,-0.007 c -0.01,-0.023 -0.015,-0.048 -0.024,-0.071 l -0.755,-1.687 h 10.16 l 1.118,2.643 12.714,27.524 c 0.089,0.18 0.168,0.295 0.23,0.372 0.063,-0.078 0.141,-0.191 0.229,-0.372 l 6.195,-13.491 c 0.106,-0.243 0.142,-0.432 0.141,-0.543 -0.01,-0.152 -0.024,-0.147 -0.071,-0.194 -0.052,-0.044 -0.229,-0.123 -0.563,-0.121 h -6.897 c -0.828,-0.004 -1.53,-0.505 -1.844,-1.214 l -0.002,10e-4 -2.832,-6.078 -0.004,-0.009 c -0.081,-0.189 -0.133,-0.389 -0.133,-0.604 -0.008,-0.31 0.141,-0.669 0.412,-0.876 0.267,-0.211 0.58,-0.279 0.885,-0.279 H 7.878 c 0.911,0.005 1.793,-0.554 2.153,-1.339 l 1.585,-3.451 0.833,-1.969 h 10.16 l -1.457,3.176 z" />
    </g>

    <g transform="translate(389.0097,435.8402)">
      <path
        style="fill:#c6c8cc;fill-opacity:1;fill-rule:nonzero;stroke:none"
        d="m 0,0 c 0.283,0.515 0.378,1.087 0.381,1.624 0,0.168 -0.01,0.333 -0.03,0.493 L 0.35,2.121 -0.617,8.887 h -0.002 c -0.057,0.446 -0.29,0.828 -0.597,1.077 -0.312,0.254 -0.695,0.391 -1.095,0.392 H -3.277 C -3.693,10.355 -4.075,10.231 -4.402,10.039 -4.723,9.847 -4.997,9.586 -5.176,9.241 l -0.002,0.001 -16.971,-32.218 -0.002,-0.004 c -0.113,-0.229 -0.21,-0.34 -0.25,-0.37 l -0.043,-0.017 c -0.027,0.01 -0.16,0.09 -0.307,0.387 l -0.004,0.007 -16.97,32.215 -10e-4,-0.001 c -0.179,0.345 -0.453,0.606 -0.774,0.798 -0.327,0.192 -0.71,0.316 -1.125,0.317 h -0.965 c -0.414,0.002 -0.821,-0.133 -1.133,-0.401 -0.309,-0.263 -0.506,-0.649 -0.559,-1.064 h -0.003 l -6.686,-44.617 -0.533,-3.532 1.639,0.006 c 0.011,-10e-4 0.022,-0.006 0.032,-0.006 h 6.346 c 0.053,0 0.102,0.022 0.154,0.026 l 1.464,0.004 0.328,3.08 3.524,22.998 13.188,-24.935 0.005,-0.009 c 0.369,-0.648 1.048,-1.159 1.89,-1.164 h 0.966 c 0.842,0.004 1.521,0.517 1.889,1.164 l 0.006,0.01 20.076,38.082 z" />
    </g>

    <g transform="translate(413.5641,415.0313)">
      <path
        style="fill:#c6c8cc;fill-opacity:1;fill-rule:nonzero;stroke:none"
        d="m 0,0 v 15.187 1.564 H -9.611 V 0 v 0 -14.03 0 -4.389 h 1.39 c 0.059,-0.005 0.115,-0.03 0.174,-0.03 h 6.483 c 0.059,0 0.115,0.025 0.174,0.03 H 0 v 4.389 0 z" />
    </g>

    <g transform="translate(455.6806,407.8623)">
      <path
        style="fill:#c6c8cc;fill-opacity:1;fill-rule:nonzero;stroke:none"
        d="m 0,0 -0.003,-0.002 -0.003,-0.002 c -1.972,-1.447 -4.95,-2.77 -8.434,-2.768 -2.265,0.003 -4.256,0.395 -6.01,1.07 10e-4,0.003 10e-4,0.006 10e-4,0.008 -1.119,0.426 -2.136,0.972 -3.06,1.612 -0.185,0.13 -0.359,0.272 -0.536,0.41 -0.205,0.158 -0.408,0.317 -0.602,0.485 -0.26,0.227 -0.511,0.462 -0.753,0.706 -0.256,0.255 -0.519,0.504 -0.753,0.777 -2.597,3.039 -3.915,7.13 -3.914,11.232 -0.001,4.101 1.317,8.192 3.914,11.231 2.601,3.038 6.456,5.062 11.713,5.069 3.484,0.002 6.462,-1.322 8.434,-2.768 L -0.003,27.057 0,27.055 C 0.273,26.86 1.485,26.058 1.485,26.058 l 5.298,8.135 c 0,0 -0.829,0.485 -1.306,0.743 l 0.002,-10e-4 c -4.256,2.44 -8.979,4.432 -13.989,4.434 -8.478,0.006 -14.917,-3.222 -19.182,-8.08 -4.269,-4.858 -6.382,-11.307 -6.383,-17.761 0.001,-5.367 1.499,-10.739 4.475,-15.204 -0.005,-0.002 -0.01,-0.004 -0.015,-0.005 0.07,-0.104 0.145,-0.204 0.216,-0.307 0.126,-0.183 0.251,-0.365 0.382,-0.545 0.416,-0.584 0.848,-1.158 1.325,-1.7 4.265,-4.859 10.704,-8.087 19.182,-8.081 5.01,0.003 9.733,1.995 13.989,4.434 L 5.477,-7.881 c 0.477,0.258 1.306,0.744 1.306,0.744 L 1.485,0.997 C 1.485,0.997 0.273,0.196 0,0" />
    </g>

    <path
      style="fill:#c6c8cc;fill-opacity:1;fill-rule:nonzero;stroke:none"
      d="m 403.953,437.138 h 9.611 v 9.207 h -9.611 z" />

    <g transform="translate(395.088,400.1144)">
      <path
        style="fill:#c6c8cc;fill-opacity:1;fill-rule:nonzero;stroke:none"
        d="M 0,0 H -0.011 L -3.73,24.617 v 0 c -0.027,0.188 -0.059,0.355 -0.149,0.541 -0.048,0.095 -0.114,0.201 -0.236,0.304 -0.117,0.102 -0.312,0.186 -0.502,0.183 -0.318,-0.008 -0.5,-0.16 -0.618,-0.272 -0.12,-0.121 -0.203,-0.245 -0.286,-0.387 l -0.006,-0.012 -5.385,-10.286 0.003,-0.002 c -0.29,-0.524 -0.438,-1.138 -0.441,-1.739 0,-0.126 0.007,-0.251 0.022,-0.375 l 10e-4,-0.008 1.899,-12.987 H -9.43 l 0.329,-3.079 1.453,-0.004 c 0.053,-0.005 0.102,-0.026 0.155,-0.026 h 6.345 c 0.011,0 0.021,0.005 0.032,0.005 l 1.649,-0.005 z" />
    </g>

    <g transform="translate(268.313,444.6328)">
      <path
        style="fill:#c6c8cc;fill-opacity:1;fill-rule:nonzero;stroke:none"
        d="m 0,0 v -7.986 -19.533 c 0.001,-0.094 -0.009,-0.157 -0.018,-0.225 -0.044,0.039 -0.09,0.081 -0.149,0.14 L -26.579,0.74 -26.587,0.748 c -0.252,0.249 -0.554,0.437 -0.879,0.58 -0.327,0.139 -0.674,0.234 -1.042,0.236 h -1.034 c -0.411,0.003 -0.83,-0.137 -1.127,-0.437 -0.3,-0.297 -0.44,-0.715 -0.437,-1.127 v -7.035 c 0.011,-0.772 0.342,-1.48 0.775,-2.013 l 0.012,-0.014 35.394,-38.085 0.003,0.002 c 0.511,-0.575 1.246,-0.893 2.003,-0.905 h 0.966 c 0.411,-0.003 0.829,0.137 1.127,0.436 0.3,0.298 0.44,0.716 0.437,1.128 v 38.5 0 9.697 L 0,1.711 Z" />
    </g>

  </g>
</svg>

